<?xml version="1.0" encoding="UTF-8"?>
<!DOCTYPE svg PUBLIC "-//W3C//DTD SVG 1.1//EN" "http://www.w3.org/Graphics/SVG/1.1/DTD/svg11.dtd">
<svg xmlns="http://www.w3.org/2000/svg" version="1.1" width="692px" height="692px" style="shape-rendering:geometricPrecision; text-rendering:geometricPrecision; image-rendering:optimizeQuality; fill-rule:evenodd; clip-rule:evenodd" xmlns:xlink="http://www.w3.org/1999/xlink">
<g><path style="opacity:0.984" fill="#000000" d="M 435.5,26.5 C 455.836,26.3334 476.169,26.5 496.5,27C 506.391,27.4066 515.224,30.5733 523,36.5C 524.457,39.366 524.79,42.366 524,45.5C 484.537,110.312 445.87,175.645 408,241.5C 370.974,308.553 337.974,377.553 309,448.5C 291.665,492.174 278.998,537.174 271,583.5C 270.501,588.489 270.334,593.489 270.5,598.5C 336.296,600.118 401.963,603.952 467.5,610C 484.633,611.829 501.633,614.495 518.5,618C 523.383,619.072 528.05,620.739 532.5,623C 538.424,629.789 537.424,635.456 529.5,640C 522.331,643.945 514.664,646.278 506.5,647C 414.319,649.993 322.319,646.993 230.5,638C 205.754,635.894 181.42,631.561 157.5,625C 153.921,623.294 150.421,621.461 147,619.5C 147.26,606.679 148.926,594.012 152,581.5C 165.816,530.717 182.816,481.05 203,432.5C 247.856,320.122 301.19,212.122 363,108.5C 372.217,93.8973 382.05,79.7307 392.5,66C 336.834,68.6918 281.168,71.6918 225.5,75C 203.167,75.6667 180.833,75.6667 158.5,75C 152.671,74.95 147.838,72.7834 144,68.5C 142.142,61.3826 144.642,56.5492 151.5,54C 159.636,51.3661 167.97,49.6994 176.5,49C 262.876,40.2192 349.209,32.7192 435.5,26.5 Z"/></g>
<g><path style="opacity:0.158" fill="#000000" d="M 691.5,545.5 C 691.5,546.167 691.5,546.833 691.5,547.5C 687.711,547.263 687.711,546.596 691.5,545.5 Z"/></g>
</svg>
