<?xml version="1.0" standalone="no"?>
<!DOCTYPE svg PUBLIC "-//W3C//DTD SVG 20010904//EN"
 "http://www.w3.org/TR/2001/REC-SVG-20010904/DTD/svg10.dtd">
<svg version="1.0" xmlns="http://www.w3.org/2000/svg"
 width="1554.000000pt" height="426.000000pt" viewBox="0 0 1554.000000 426.000000"
 preserveAspectRatio="xMidYMid meet">

<g transform="translate(0.000000,426.000000) scale(0.100000,-0.100000)"
fill="#000000" stroke="none">
<path d="M4355 4173 c-309 -19 -949 -72 -1288 -108 -147 -15 -199 -33 -205
-71 -6 -39 20 -56 94 -63 96 -8 481 4 709 23 105 9 255 19 335 23 l144 6 -30
-39 c-143 -183 -427 -690 -640 -1144 -332 -709 -565 -1333 -590 -1582 l-7 -66
40 -21 c125 -63 688 -116 1373 -128 367 -6 458 0 530 37 70 36 64 83 -14 105
-160 46 -510 78 -1131 103 l-170 7 2 52 c3 64 43 245 90 408 110 381 408 1021
736 1580 221 376 451 762 464 777 36 40 -11 82 -107 98 -60 9 -214 11 -335 3z"/>
<path d="M7683 3780 c-100 -9 -150 -22 -203 -53 -140 -83 -241 -229 -325 -468
-37 -106 -98 -339 -110 -422 -8 -52 14 -45 -193 -66 -95 -10 -152 -27 -166
-50 -3 -5 2 -18 12 -30 22 -27 143 -44 243 -35 38 4 69 5 69 3 0 -2 -11 -83
-24 -179 -64 -455 -71 -560 -71 -1065 0 -516 8 -650 56 -930 55 -323 76 -366
197 -401 44 -13 85 -15 196 -11 150 5 202 17 242 53 33 31 32 81 -6 236 -54
223 -95 504 -120 813 -18 225 -24 732 -11 950 14 227 47 565 56 574 7 7 228 7
530 0 178 -4 192 -3 225 17 25 14 35 27 35 44 0 29 -29 46 -106 60 -51 10
-351 21 -558 20 l-104 0 7 39 c3 22 11 109 17 193 28 407 117 568 314 568 97
0 184 -50 225 -130 22 -44 40 -144 37 -214 l-2 -50 58 -19 c51 -18 64 -19 112
-8 84 19 138 95 138 198 0 64 -33 123 -99 182 -157 138 -405 205 -671 181z"/>
<path d="M9770 3779 c-117 -9 -187 -35 -262 -94 -100 -80 -180 -205 -253 -395
-32 -82 -125 -433 -125 -470 0 -28 -10 -31 -128 -41 -136 -12 -196 -26 -218
-50 -17 -19 -17 -21 2 -39 25 -26 141 -42 240 -33 l77 6 -7 -34 c-19 -98 -68
-520 -86 -744 -13 -168 -13 -735 0 -952 18 -283 61 -578 106 -716 39 -118 119
-152 338 -144 153 6 203 17 241 55 32 32 32 74 1 206 -147 611 -185 1404 -106
2174 10 101 22 187 25 190 7 7 220 8 530 1 178 -4 192 -3 225 17 20 11 36 29
38 42 8 57 -161 81 -577 82 l-194 0 7 48 c3 26 10 110 16 187 17 228 36 316
90 425 35 68 72 105 129 125 124 44 265 -7 322 -116 24 -47 38 -140 32 -206
-5 -51 -5 -52 28 -66 155 -64 279 16 279 181 0 47 -6 67 -28 103 -80 125 -290
232 -507 258 -98 12 -96 12 -235 0z"/>
<path d="M5822 3440 c-119 -25 -198 -135 -190 -264 3 -47 5 -50 43 -64 23 -8
80 -15 135 -16 130 -1 159 14 221 117 54 89 80 158 67 181 -19 34 -194 63
-276 46z"/>
<path d="M12253 3241 c-5 -20 -30 -31 -70 -31 -13 0 -23 -4 -23 -10 0 -5 18
-10 41 -10 l41 0 -6 -37 c-5 -37 -9 -159 -7 -215 1 -36 34 -68 67 -68 23 0 25
3 19 23 -14 45 -17 118 -10 210 l7 95 39 6 c49 8 53 30 5 24 -27 -3 -36 0 -39
14 -7 25 -57 24 -64 -1z"/>
<path d="M13091 3144 c-55 -39 -79 -159 -41 -207 25 -32 80 -51 123 -42 40 9
103 48 117 75 18 34 -22 25 -70 -15 -52 -44 -84 -45 -105 -5 -19 37 -19 50 0
50 67 0 134 107 93 148 -17 17 -90 15 -117 -4z m79 -29 c0 -45 -27 -95 -51
-95 -19 0 -21 4 -16 33 10 58 25 87 47 87 15 0 20 -7 20 -25z"/>
<path d="M11954 3131 c-71 -17 -72 -44 -3 -116 35 -37 50 -60 47 -75 l-3 -22
-27 21 c-43 35 -87 22 -48 -14 25 -23 114 -32 135 -15 26 22 17 49 -40 110
-30 33 -55 65 -55 70 0 23 45 28 82 9 26 -14 39 -16 44 -7 9 14 -23 38 -52 38
-12 0 -28 2 -36 4 -7 2 -27 1 -44 -3z"/>
<path d="M13400 3127 c-54 -19 -52 -48 9 -112 29 -30 51 -63 51 -75 l0 -22
-35 22 c-21 13 -42 19 -53 15 -15 -6 -13 -10 11 -31 21 -18 40 -24 76 -24 88
0 93 36 16 120 -30 33 -55 64 -55 70 0 24 36 28 78 10 29 -13 44 -15 48 -8 9
14 -23 38 -50 38 -12 0 -30 2 -41 5 -11 2 -36 -1 -55 -8z"/>
<path d="M12924 3123 c-12 -2 -40 -20 -62 -38 -42 -36 -52 -33 -52 16 0 15 -7
19 -31 19 l-32 0 6 -77 c10 -115 13 -123 53 -123 32 0 34 2 34 33 1 68 64 157
112 157 11 0 16 5 13 10 -3 6 -9 9 -13 9 -4 -1 -17 -4 -28 -6z"/>
<path d="M12515 3101 c-73 -32 -82 -133 -14 -161 108 -45 241 92 140 145 -37
19 -100 27 -126 16z m64 -22 c19 -7 33 -20 37 -34 14 -56 -62 -121 -93 -79
-18 25 -16 84 4 106 9 10 17 18 18 18 1 0 16 -5 34 -11z"/>
<path d="M5717 2700 c-65 -12 -94 -33 -106 -77 -6 -21 -38 -134 -72 -252 -82
-285 -92 -346 -84 -496 7 -141 15 -171 66 -247 46 -68 76 -91 148 -112 91 -27
275 -16 310 19 15 15 13 35 -29 235 -35 168 -24 300 46 542 36 128 60 308 44
338 -23 44 -203 72 -323 50z"/>
<path d="M12149 2681 c-79 -25 -100 -63 -124 -231 -50 -351 -158 -717 -263
-896 -95 -161 -206 -218 -279 -141 -100 104 -191 433 -213 770 -9 143 -18 164
-77 192 -48 24 -214 33 -268 15 -49 -16 -67 -56 -54 -124 5 -26 13 -138 19
-249 11 -212 30 -366 56 -457 58 -200 185 -334 355 -375 246 -58 481 43 649
279 l55 77 7 -88 c46 -560 63 -916 50 -1073 -5 -69 -13 -132 -16 -141 -4 -9 2
-27 14 -42 59 -75 386 -100 510 -39 45 22 68 65 71 127 1 28 -5 167 -15 310
-9 143 -30 465 -47 715 -16 250 -34 592 -39 760 -6 199 -14 328 -24 371 -28
128 -92 216 -173 238 -43 12 -156 13 -194 2z"/>
</g>
</svg>
